<svg data-v-423bf9ae="" xmlns="http://www.w3.org/2000/svg" viewBox="0 0 303.80152625741954 60" class="font"><!----><!----><!----><g data-v-423bf9ae="" id="1e6c1e6e-019e-4b64-9331-8f3e9e3f7275" fill="black" transform="matrix(4.580152538382478,0,0,4.580152538382478,-4.9923690170002715,-14.198471955351138)"><path d="M2.61 13.33L1.57 13.33Q1.09 13.33 1.09 12.82L1.09 12.82L1.09 4.04Q1.09 3.53 1.57 3.53L1.57 3.53L2.61 3.53Q3.09 3.53 3.09 4.04L3.09 4.04L3.09 7.38L6.77 7.38L6.77 4.04Q6.77 3.53 7.25 3.53L7.25 3.53L8.29 3.53Q8.76 3.53 8.76 4.04L8.76 4.04L8.76 12.82Q8.76 13.33 8.29 13.33L8.29 13.33L7.25 13.33Q6.77 13.33 6.77 12.82L6.77 12.82L6.77 9.08L3.09 9.08L3.09 12.82Q3.09 13.33 2.61 13.33L2.61 13.33ZM10.40 11.42L10.40 11.42Q10.40 10.05 11.71 9.43Q13.02 8.82 14.69 8.78L14.69 8.78L14.69 8.50Q14.69 7.88 14.38 7.62Q14.06 7.36 13.50 7.36L13.50 7.36Q13.10 7.36 12.80 7.47Q12.50 7.58 12.27 7.73Q12.05 7.88 11.87 8.03L11.87 8.03Q11.56 8.30 11.35 8.05L11.35 8.05L10.79 7.36Q10.58 7.10 10.89 6.82L10.89 6.82Q11.13 6.61 11.45 6.45Q11.76 6.30 12.29 6.16Q12.82 6.02 13.66 6.02L13.66 6.02Q15.08 6.02 15.84 6.67Q16.60 7.33 16.60 8.61L16.60 8.61L16.60 12.92Q16.60 13.33 16.19 13.33L16.19 13.33L15.07 13.33Q14.70 13.33 14.70 12.92L14.70 12.92L14.70 12.71L14.69 12.71Q14.29 13.10 13.72 13.29Q13.16 13.47 12.69 13.47L12.69 13.47Q11.57 13.47 10.99 12.92Q10.40 12.37 10.40 11.42ZM12.43 11.38L12.43 11.38Q12.43 11.61 12.52 11.79Q12.62 11.96 12.82 12.04Q13.03 12.13 13.28 12.13L13.28 12.13Q13.63 12.13 13.96 12.03Q14.29 11.94 14.69 11.58L14.69 11.58L14.69 10.10Q13.54 10.23 13.15 10.43Q12.76 10.64 12.60 10.86Q12.43 11.07 12.43 11.38ZM19.97 13.33L18.87 13.33Q18.46 13.33 18.46 12.92L18.46 12.92L18.46 4.85Q18.46 4.54 18.61 4.29L18.61 4.29L19.13 3.36Q19.28 3.10 19.49 3.10L19.49 3.10L19.97 3.10Q20.38 3.10 20.38 3.51L20.38 3.51L20.38 12.92Q20.38 13.33 19.97 13.33L19.97 13.33ZM23.74 13.33L22.65 13.33Q22.24 13.33 22.24 12.92L22.24 12.92L22.24 4.85Q22.24 4.54 22.38 4.29L22.38 4.29L22.91 3.36Q23.06 3.10 23.26 3.10L23.26 3.10L23.74 3.10Q24.15 3.10 24.15 3.51L24.15 3.51L24.15 12.92Q24.15 13.33 23.74 13.33L23.74 13.33ZM29.39 13.33L26.72 13.33Q26.17 13.33 26.17 12.82L26.17 12.82L26.17 4.04Q26.17 3.53 26.72 3.53L26.72 3.53L29.05 3.53Q31.67 3.53 32.59 4.17Q33.51 4.82 33.51 6.16L33.51 6.16Q33.51 7.10 32.82 7.61Q32.14 8.12 31.49 8.20L31.49 8.20L31.49 8.22Q32.12 8.26 32.96 8.85Q33.80 9.44 33.80 10.51L33.80 10.51Q33.80 11.77 32.77 12.55Q31.75 13.33 29.39 13.33L29.39 13.33ZM28.17 9.11L28.17 11.66L29.17 11.66Q30.62 11.66 31.14 11.41Q31.66 11.16 31.66 10.38L31.66 10.38Q31.66 9.66 31.06 9.38Q30.45 9.11 29.17 9.11L29.17 9.11L28.17 9.11ZM28.17 5.20L28.17 7.49L29.07 7.49Q29.95 7.49 30.72 7.18Q31.49 6.88 31.49 6.23L31.49 6.23Q31.49 5.72 31.06 5.46Q30.63 5.20 29.07 5.20L29.07 5.20L28.17 5.20ZM36.94 13.33L35.85 13.33Q35.44 13.33 35.44 12.92L35.44 12.92L35.44 6.56Q35.44 6.15 35.85 6.15L35.85 6.15L36.93 6.15Q37.34 6.15 37.34 6.56L37.34 6.56L37.34 7.12L37.37 7.12Q37.54 6.69 37.96 6.35Q38.38 6.02 38.94 6.02L38.94 6.02Q39.33 6.02 39.59 6.11L39.59 6.11Q39.83 6.20 39.77 6.44L39.77 6.44L39.58 7.25Q39.52 7.53 39.21 7.42L39.21 7.42Q39.03 7.36 38.87 7.36L38.87 7.36Q38.21 7.36 37.78 8.14Q37.35 8.93 37.35 10.43L37.35 10.43L37.35 12.92Q37.35 13.33 36.94 13.33L36.94 13.33ZM42.31 13.33L41.22 13.33Q40.81 13.33 40.81 12.92L40.81 12.92L40.81 6.56Q40.81 6.15 41.22 6.15L41.22 6.15L42.31 6.15Q42.72 6.15 42.72 6.56L42.72 6.56L42.72 12.92Q42.72 13.33 42.31 13.33L42.31 13.33ZM42.31 5.10L41.22 5.10Q40.81 5.10 40.81 4.69L40.81 4.69L40.81 3.81Q40.81 3.40 41.22 3.40L41.22 3.40L42.31 3.40Q42.72 3.40 42.72 3.81L42.72 3.81L42.72 4.69Q42.72 5.10 42.31 5.10L42.31 5.10ZM44.20 9.74L44.20 9.74Q44.20 8.24 44.85 7.13Q45.51 6.02 47.11 6.02L47.11 6.02Q47.73 6.02 48.17 6.19Q48.60 6.37 48.96 6.96L48.96 6.96L48.99 6.96Q48.96 6.69 48.96 6.41L48.96 6.41L48.96 3.65Q48.96 3.24 49.37 3.24L49.37 3.24L50.46 3.24Q50.87 3.24 50.87 3.65L50.87 3.65L50.87 12.92Q50.87 13.33 50.46 13.33L50.46 13.33L49.38 13.33Q49.04 13.33 49.01 12.92L49.01 12.92L48.99 12.52L48.96 12.52Q48.60 13.11 48.17 13.29Q47.73 13.47 47.11 13.47L47.11 13.47Q45.51 13.47 44.85 12.36Q44.20 11.25 44.20 9.74ZM46.22 9.74L46.22 9.74Q46.22 10.83 46.51 11.48Q46.79 12.13 47.71 12.13L47.71 12.13Q48.23 12.13 48.59 11.55Q48.96 10.97 48.96 10.05L48.96 10.05L48.96 9.43Q48.96 8.51 48.59 7.93Q48.23 7.36 47.71 7.36L47.71 7.36Q46.79 7.36 46.51 8.00Q46.22 8.65 46.22 9.74ZM52.35 9.74L52.35 9.74Q52.35 8.24 53.00 7.13Q53.66 6.02 55.26 6.02L55.26 6.02Q55.88 6.02 56.31 6.19Q56.75 6.37 57.11 6.96L57.11 6.96L57.13 6.96L57.16 6.56Q57.19 6.15 57.53 6.15L57.53 6.15L58.61 6.15Q59.02 6.15 59.02 6.56L59.02 6.56L59.02 13.25Q59.02 14.93 58.12 15.57Q57.22 16.20 55.51 16.20L55.51 16.20Q54.78 16.20 54.17 16.13Q53.55 16.05 52.92 15.75L52.92 15.75Q52.60 15.59 52.81 15.16L52.81 15.16L53.06 14.66Q53.21 14.36 53.56 14.53L53.56 14.53Q53.84 14.66 54.25 14.76Q54.67 14.86 55.30 14.86L55.30 14.86Q56.18 14.86 56.64 14.54Q57.11 14.21 57.11 13.12L57.11 13.12L57.11 13.00Q57.11 12.73 57.13 12.46L57.13 12.46L57.11 12.46Q56.75 13.04 56.31 13.22Q55.88 13.40 55.26 13.40L55.26 13.40Q53.66 13.40 53.00 12.29Q52.35 11.18 52.35 9.74ZM54.37 9.74L54.37 9.74Q54.37 10.77 54.66 11.41Q54.94 12.06 55.86 12.06L55.86 12.06Q56.38 12.06 56.74 11.48Q57.11 10.90 57.11 9.98L57.11 9.98L57.11 9.43Q57.11 8.51 56.74 7.93Q56.38 7.36 55.86 7.36L55.86 7.36Q54.94 7.36 54.66 8.00Q54.37 8.65 54.37 9.74ZM60.50 9.74L60.50 9.74Q60.50 8.01 61.36 7.01Q62.23 6.02 63.81 6.02L63.81 6.02Q65.64 6.02 66.53 6.96Q67.42 7.90 67.42 9.99L67.42 9.99Q67.42 10.40 67.03 10.40L67.03 10.40L62.52 10.40Q62.63 11.54 63.08 11.83Q63.53 12.13 64.13 12.13L64.13 12.13Q64.70 12.13 65.00 11.98Q65.30 11.83 65.50 11.57L65.50 11.57Q65.73 11.27 66.08 11.47L66.08 11.47L66.76 11.89Q67.16 12.13 66.88 12.48L66.88 12.48Q66.46 12.97 65.90 13.22Q65.34 13.47 64.13 13.47L64.13 13.47Q62.17 13.47 61.33 12.47Q60.50 11.47 60.50 9.74ZM62.53 9.04L62.53 9.04L65.50 9.04Q65.50 8.30 65.13 7.83Q64.76 7.36 63.96 7.36L63.96 7.36Q63.31 7.36 62.94 7.81Q62.56 8.26 62.53 9.04Z"></path></g><!----><!----></svg>